<?xml version="1.0" ?><svg style="enable-background:new 0 0 16 16;" version="1.1" viewBox="0 0 16 16" xml:space="preserve" xmlns="http://www.w3.org/2000/svg" xmlns:xlink="http://www.w3.org/1999/xlink"><g id="Guide"/><g id="Layer_2"><g><path fill="#1890ff" d="M8,6.85c-0.28,0-0.5,0.22-0.5,0.5v3.4c0,0.28,0.22,0.5,0.5,0.5s0.5-0.22,0.5-0.5v-3.4C8.5,7.08,8.28,6.85,8,6.85z"/><path fill="#1890ff" d="M8.01,4.8C7.75,4.78,7.51,5.05,7.5,5.32c0,0.01,0,0.07,0,0.08c0,0.27,0.21,0.47,0.49,0.48c0,0,0.01,0,0.01,0    c0.27,0,0.49-0.24,0.5-0.5c0-0.01,0-0.11,0-0.11C8.5,4.98,8.29,4.8,8.01,4.8z"/></g></g></svg>